PathFileType	4	(X/Y/Z)	C:/Users/opensim2020/Desktop/walking_exp_matlab/subject03_walking07_straight_02.trc	
DataRate	CameraRate	NumFrames	NumMarkers	Units	OrigDataRate	OrigDataStartFrame	OrigNumFrames	
100.00	100.00	4	46	mm	100.00	1467	252	
Frame#	Time	LFHD			RFHD			LBHD			RBHD			C7			T10			CLAV			STRN			RBAK			LSHO			LUPA			LELB			LFRM			LWRA			LWRB			LFIN			RSHO			RUPA			RELB			RFRM			RWRA			RWRB			RFIN			LASI			RASI			LPSI			RPSI			LTHI			LKNE			LTIB			LANK			LHEE			LTOE			RTHI			RKNE			RTIB			RANK			RHEE			RTOE			*39			*40			*41			*42			*43			*44			*45			
		X1	Y1	Z1	X2	Y2	Z2	X3	Y3	Z3	X4	Y4	Z4	X5	Y5	Z5	X6	Y6	Z6	X7	Y7	Z7	X8	Y8	Z8	X9	Y9	Z9	X10	Y10	Z10	X11	Y11	Z11	X12	Y12	Z12	X13	Y13	Z13	X14	Y14	Z14	X15	Y15	Z15	X16	Y16	Z16	X17	Y17	Z17	X18	Y18	Z18	X19	Y19	Z19	X20	Y20	Z20	X21	Y21	Z21	X22	Y22	Z22	X23	Y23	Z23	X24	Y24	Z24	X25	Y25	Z25	X26	Y26	Z26	X27	Y27	Z27	X28	Y28	Z28	X29	Y29	Z29	X30	Y30	Z30	X31	Y31	Z31	X32	Y32	Z32	X33	Y33	Z33	X34	Y34	Z34	X35	Y35	Z35	X36	Y36	Z36	X37	Y37	Z37	X38	Y38	Z38	X39	Y39	Z39	X40	Y40	Z40	X41	Y41	Z41	X42	Y42	Z42	X43	Y43	Z43	X44	Y44	Z44	X45	Y45	Z45	X46	Y46	Z46	

1	0.000	-914.13202	1092.01758	1603.98291	-1046.05249	1103.82556	1615.57739	-908.13959	1224.14648	1573.75098	-1038.43164	1230.90515	1584.36133	-966.03699	1270.12524	1415.51965	-974.78021	1314.43848	1102.84729	-982.71143	1151.69922	1334.97986	-987.26428	1112.55737	1169.30359	-1064.58972	1337.44763	1244.64319	-822.79529	1176.08008	1369.11963	-757.24884	1188.49292	1169.71423	-750.30475	1191.43945	1046.10437	-751.99597	1179.50745	915.79474	-782.91681	1179.41626	795.34399	-728.76031	1196.21191	804.64020	-742.63403	1208.66028	717.97534	-1133.79651	1212.59729	1366.99536	-1209.34094	1193.61987	1148.35571	-1223.82813	1165.28149	1039.65869	-1229.57739	1127.87927	907.69287	-1198.42773	1080.69727	818.68390	-1239.51013	1114.51941	807.92822	-1231.38855	1077.95996	741.93054	-878.65430	1137.58093	939.89716	-1113.84021	1162.43665	935.20636	-911.74701	1304.22400	962.86664	-1060.56628	1317.09717	968.52753	-837.56573	1161.71082	637.40704	-883.80975	1125.81799	464.57410	-886.83405	1143.38464	270.55115	-930.61047	1120.14966	62.76321	-968.39203	1156.41626	28.67822	-952.29968	966.06927	31.77622	-1164.42480	1237.11951	637.44086	-1149.63782	1233.16882	456.43674	-1141.52893	1380.48804	329.48114	-1089.38232	1531.33081	179.00702	-1028.18054	1570.75830	194.10558	-1080.96313	1490.28931	41.49607				-952.93243	1170.24890	1677.91309															 
2	0.010	-913.76691	1083.08972	1604.74402	-1045.66077	1094.90405	1616.57202	-907.85211	1215.07983	1574.23962	-1038.10815	1221.91113	1585.07727	-965.66656	1261.06799	1416.00354	-974.41266	1304.91577	1103.44177	-982.65979	1142.37939	1335.77441	-987.21600	1103.06165	1170.11841	-1064.37866	1327.92859	1245.25024	-822.87512	1166.29980	1370.02258	-756.61993	1176.83899	1170.97900	-749.55530	1178.46912	1047.30713	-751.58453	1164.22424	917.24048	-782.83405	1161.66040	797.01508	-728.69116	1178.74072	805.65527	-742.98059	1189.65710	718.77338	-1133.47803	1203.46790	1367.87683	-1209.01465	1185.60950	1149.10840	-1223.59106	1158.32068	1040.13184	-1229.37549	1121.93384	907.87976	-1198.43396	1075.08435	818.51630	-1239.18237	1109.41602	807.91510	-1230.71216	1073.65381	741.05194	-877.80542	1128.68225	940.28473	-1113.29407	1152.86865	935.75885	-911.43152	1294.98950	963.58154	-1060.26880	1307.67761	968.80609	-837.29016	1155.99890	637.69342	-883.69952	1121.66821	464.39249	-886.77167	1141.23486	270.79700	-930.73309	1120.06104	62.82838	-968.55402	1156.42566	28.72765	-952.28528	965.86334	31.58492	-1164.49133	1222.47217	636.81146	-1150.17029	1213.65698	456.09647	-1142.89685	1361.24500	330.73651	-1089.74854	1516.15210	185.13896	-1028.78723	1555.72009	201.75819	-1082.02368	1478.02173	47.04499																					 
3	0.020	-913.41388	1074.19080	1605.49072	-1045.29846	1086.03577	1617.56250	-907.60632	1206.11157	1574.66663	-1037.81128	1212.99170	1585.76001	-965.33881	1252.03186	1416.46399	-974.03400	1295.47461	1103.88379	-982.59180	1133.25708	1336.46533	-987.18927	1093.84009	1170.65820	-1064.02673	1318.70459	1245.55701	-822.89783	1156.68237	1370.57593	-755.94403	1165.26563	1171.78259	-748.70154	1165.47803	1048.01709	-751.08350	1148.94958	918.28979	-782.68695	1143.92737	798.26569	-728.63220	1161.14392	806.34320	-743.26538	1170.02551	719.32642	-1133.34509	1194.47205	1368.36572	-1208.75903	1177.62378	1149.28198	-1223.50220	1151.33765	1040.15942	-1229.30627	1115.92920	907.59686	-1198.65857	1069.51782	817.94318	-1239.06409	1104.25671	807.47864	-1230.24768	1069.48657	740.05579	-877.00519	1119.75439	940.42462	-1112.92126	1143.53516	936.03320	-911.01923	1286.04150	963.94147	-1059.91431	1298.49561	968.61145	-836.85565	1150.43469	638.11328	-883.42047	1117.69922	464.33264	-886.56354	1139.13184	271.01056	-931.14520	1119.83130	62.97799	-968.69031	1156.43140	28.77666	-952.30261	965.65796	31.38263	-1164.32605	1208.05945	636.36316	-1150.36609	1194.18665	455.93295	-1143.67944	1341.83398	332.26358	-1089.67590	1500.70508	191.84764	-1028.73242	1540.40723	207.36879	-1083.24866	1462.39819	53.00356				-951.89331	1152.93640	1679.39685															 
4	0.030	-913.18915	1065.32214	1606.15979	-1045.03418	1077.21802	1618.45337	-907.32697	1197.17627	1575.10876	-1037.64355	1204.14941	1586.46008	-965.15521	1242.99451	1417.05225	-973.71857	1286.17859	1104.21191	-982.64337	1124.25049	1337.09485	-987.11371	1084.73901	1171.17444	-1063.48193	1309.67981	1245.67163	-822.90369	1147.24597	1370.82336	-756.19080	1153.66858	1171.93298	-747.86133	1152.77502	1048.43054	-750.57770	1133.68567	919.10480	-782.41327	1125.93140	799.38116	-728.45374	1143.64575	806.76813	-743.45282	1149.85510	719.73407	-1133.41711	1185.57617	1368.47131	-1208.63965	1169.72827	1149.03406	-1223.52600	1144.27185	1039.73120	-1229.40955	1109.91614	906.95624	-1198.95447	1063.89355	816.89337	-1239.05249	1099.06213	806.59283	-1229.96484	1065.31592	738.64673	-876.31915	1110.94849	940.35663	-1112.67285	1134.34509	936.06494	-910.52728	1277.34216	964.09943	-1059.54944	1289.55054	968.07642	-836.27167	1144.68311	638.58746	-882.90735	1113.87183	464.26151	-886.25232	1137.08411	271.26416	-931.11328	1119.92249	63.05357	-968.76984	1156.43530	28.79678	-952.27820	965.47144	31.21881	-1164.06018	1193.87500	636.32684	-1150.62952	1174.65796	456.37234	-1143.48108	1322.53992	334.45996	-1089.72839	1484.00916	197.35036	-1029.01514	1524.14124	211.77617	-1084.57312	1444.31506	58.36715				-951.43701	1144.17200	1680.08545															 
